<?xml version="1.0" encoding="UTF-8" standalone="no"?>
<svg width="34px" height="34px" viewBox="0 0 34 34" version="1.1" xmlns="http://www.w3.org/2000/svg" xmlns:xlink="http://www.w3.org/1999/xlink" xmlns:sketch="http://www.bohemiancoding.com/sketch/ns">
    <!-- Generator: Sketch 3.3.2 (12043) - http://www.bohemiancoding.com/sketch -->
    <title>bike-wheel-2</title>
    <desc>Created with Sketch.</desc>
    <defs></defs>
    <g id="Page-1" stroke="none" stroke-width="1" fill="none" fill-rule="evenodd" sketch:type="MSPage">
        <g id="dashboard" sketch:type="MSArtboardGroup" transform="translate(-541.000000, -1839.000000)" fill="#FFFFFF">
            <g id="MAKE-BANK" sketch:type="MSLayerGroup" transform="translate(40.000000, 1577.000000)">
                <g id="Bike" transform="translate(490.000000, 250.000000)" sketch:type="MSShapeGroup">
                    <g id="bike-wheel-2" transform="translate(11.000000, 12.000000)">
                        <path d="M16.7524375,0 C7.51665625,0 0,7.5150625 0,16.7519062 C0,25.98875 7.51665625,33.5043437 16.7524375,33.5043437 C25.9892812,33.5043437 33.5043437,25.98875 33.5043437,16.7519062 C33.5043437,7.5150625 25.9892812,0 16.7524375,0 L16.7524375,0 Z M16.7524375,18.4535 C15.8131875,18.4535 15.0497813,17.6895625 15.0497813,16.7519062 C15.0497813,15.81425 15.8137187,15.0508437 16.7524375,15.0508437 C17.6916875,15.0508437 18.4550937,15.81425 18.4550937,16.7519062 C18.4550937,17.6900937 17.6916875,18.4535 16.7524375,18.4535 L16.7524375,18.4535 Z M18.6867187,13.0639688 C18.4651875,12.947625 18.2362187,12.8535937 17.9934375,12.777625 L17.9934375,3.6815625 C20.68475,3.93496875 23.1407187,4.99959375 25.1137812,6.63425 L18.6867187,13.0639688 L18.6867187,13.0639688 Z M15.5114375,12.777625 C15.272375,12.8535937 15.0402187,12.947625 14.817625,13.0639688 L8.387375,6.63425 C10.3609687,5.0011875 12.8174687,3.93496875 15.5093125,3.6815625 L15.5114375,12.777625 L15.5114375,12.777625 Z M13.0629062,14.8186875 C12.9465625,15.0402187 12.852,15.2697187 12.777625,15.5114375 L3.68315625,15.5114375 C3.9365625,12.8211875 5.00065625,10.3630937 6.63690625,8.3895 L13.0629062,14.8186875 L13.0629062,14.8186875 Z M12.777625,17.9929062 C12.8535937,18.2351562 12.947625,18.4646562 13.0629062,18.6861875 L6.6331875,25.1159062 C4.99959375,23.1407187 3.93390625,20.6842187 3.6805,17.9939687 L12.777625,17.9939687 L12.777625,17.9929062 L12.777625,17.9929062 Z M14.8181563,20.4409062 C15.0402187,20.5577812 15.2691875,20.6518125 15.5119688,20.72725 L15.5119688,29.8227812 C12.8206563,29.569375 10.3652188,28.50475 8.39215625,26.870625 L14.8181563,20.4409062 L14.8181563,20.4409062 Z M17.9934375,20.72725 C18.2325,20.6518125 18.4651875,20.5577812 18.6867187,20.4409062 L25.1175,26.8722187 C23.143375,28.5042187 20.686875,29.5704375 17.9960938,29.824375 L17.9934375,20.72725 L17.9934375,20.72725 Z M20.4414375,18.6861875 C20.5577813,18.4646562 20.6523438,18.2351562 20.72725,17.9929062 L29.82225,17.9929062 C29.5688437,20.6831562 28.5052812,23.1407187 26.8685,25.1148437 L20.4414375,18.6861875 L20.4414375,18.6861875 Z M20.72725,15.5114375 C20.6523438,15.2697187 20.5577812,15.0402187 20.4414375,14.8186875 L26.8716875,8.3895 C28.5052813,10.3625625 29.5715,12.8211875 29.8249062,15.5114375 L20.72725,15.5114375 L20.72725,15.5114375 Z M25.5541875,6.19596875 C23.4658437,4.45240625 20.8558125,3.31925 17.9939687,3.062125 L17.9939687,2.5446875 C20.9965937,2.80553125 23.7357187,3.99446875 25.9191562,5.83153125 L25.5541875,6.19596875 L25.5541875,6.19596875 Z M15.5114375,3.062125 C12.6490625,3.3203125 10.0390312,4.45240625 7.95121875,6.19596875 L7.58571875,5.831 C9.7696875,3.995 12.5088125,2.805 15.5114375,2.54415625 L15.5114375,3.062125 L15.5114375,3.062125 Z M6.1965,7.9506875 C4.45240625,10.0390312 3.31925,12.6495937 3.06265625,15.5114375 L2.54521875,15.5114375 C2.80765625,12.5082812 3.995,9.7696875 5.83153125,7.58571875 L6.1965,7.9506875 L6.1965,7.9506875 Z M3.06265625,17.9929062 C3.31925,20.8552812 4.45240625,23.4658437 6.1965,25.553125 L5.83153125,25.9180937 C3.995,23.7346562 2.80659375,20.9955312 2.54521875,17.9929062 L3.06265625,17.9929062 L3.06265625,17.9929062 Z M7.95121875,27.308375 C10.0390312,29.0519375 12.6490625,30.1850937 15.5114375,30.4416875 L15.5114375,30.959125 C12.5088125,30.6988125 9.7696875,29.509875 7.58571875,27.6728125 L7.95121875,27.308375 L7.95121875,27.308375 Z M17.9934375,30.4422187 C20.8558125,30.1840312 23.4658437,29.0524687 25.5536562,27.3089062 L25.918625,27.673875 C23.7351875,29.5093437 20.9960625,30.6993437 17.9934375,30.9601875 L17.9934375,30.4422187 L17.9934375,30.4422187 Z M27.308375,25.5536562 C29.0524687,23.4658437 30.185625,20.8552812 30.4422187,17.9934375 L30.9596562,17.9934375 C30.6982812,20.9960625 29.509875,23.7351875 27.6728125,25.918625 L27.308375,25.5536562 L27.308375,25.5536562 Z M30.44275,15.5114375 C30.1861562,12.6495937 29.053,10.0390312 27.3089062,7.9506875 L27.673875,7.5851875 C29.5109375,9.7696875 30.6988125,12.5082812 30.9607187,15.5109062 L30.44275,15.5109062 L30.44275,15.5114375 Z" id="Shape"></path>
                    </g>
                </g>
            </g>
        </g>
    </g>
</svg>