<?xml version="1.0" encoding="utf-8"?>
<!-- Generator: Adobe Illustrator 18.1.1, SVG Export Plug-In . SVG Version: 6.00 Build 0)  -->
<svg version="1.1" id="svg7349" xmlns:svg="http://www.w3.org/2000/svg"
	 xmlns="http://www.w3.org/2000/svg" xmlns:xlink="http://www.w3.org/1999/xlink" x="0px" y="0px"
	 viewBox="353.9 160.6 275.7 282.3" enable-background="new 353.9 160.6 275.7 282.3" xml:space="preserve">
<path id="path6835" fill="#FFFFFF" d="M526.7,242.9c2.3,2.4,8.6,6.4,14.7,4.2l58.2-21.4c-39.5-48.7-111.3-62.1-167.2-29
	c-60.2,35.6-79.1,111.5-42.2,169.5c36.9,58.1,115.5,76.3,175.7,40.7c20.3-12,35.9-28.6,46.3-47.6l-50.9-13.8c-5.5-1.5-11,1.2-13,5.2
	l-28.4,56.7c-1.4,3-4.9,4.3-7.9,2.9c-1.7-0.8-2.9-2.4-3.4-4l-13.3-70c-1.4-7.4-8.4-11.2-12.2-12.2l-68.7-18.6c-1.8-0.6-3.4-2-4-4
	c-1-3.2,0.7-6.5,3.9-7.5l60.2-22.2c4.4-1.6,7.5-7,6.6-12.2l-11.3-61.8c-0.6-2.9,1.1-5.9,4-6.8c2.3-0.7,4.7,0,6.2,1.6L526.7,242.9z"
	/>
</svg>
