<?xml version="1.0" encoding="UTF-8" standalone="no"?>
<svg width="34px" height="36px" viewBox="0 0 34 36" version="1.1" xmlns="http://www.w3.org/2000/svg" xmlns:xlink="http://www.w3.org/1999/xlink" xmlns:sketch="http://www.bohemiancoding.com/sketch/ns">
    <!-- Generator: Sketch 3.3.2 (12043) - http://www.bohemiancoding.com/sketch -->
    <title>cup</title>
    <desc>Created with Sketch.</desc>
    <defs></defs>
    <g id="Page-1" stroke="none" stroke-width="1" fill="none" fill-rule="evenodd" sketch:type="MSPage">
        <g id="dashboard" sketch:type="MSArtboardGroup" transform="translate(-540.000000, -1587.000000)" fill="#FFFFFF">
            <g id="MAKE-BANK" sketch:type="MSLayerGroup" transform="translate(40.000000, 1577.000000)">
                <g id="Coffee" transform="translate(490.000000, 0.000000)" sketch:type="MSShapeGroup">
                    <g id="cup" transform="translate(10.000000, 10.000000)">
                        <path d="M25.6282083,28.3892917 C31.4075,28.1569583 33.9759167,25.5269167 33.9759167,22.30825 C33.9759167,19.5124583 32.0357917,17.1600833 27.7383333,16.4375833 C27.7574583,15.39775 27.758875,14.39475 27.758875,13.4583333 L0.354166667,13.4583333 C0.354166667,19.5811667 0.36125,28.475 5.86216667,32.722875 C2.52379167,32.9792917 0.354166667,33.3851667 0.354166667,33.8434583 C0.354166667,34.6176667 6.48904167,35.2445417 14.056875,35.2445417 C21.6247083,35.2445417 27.758875,34.6176667 27.758875,33.8434583 C27.758875,33.3851667 25.58925,32.9785833 22.2515833,32.722875 C23.7440417,31.5704167 24.8355833,30.0786667 25.6282083,28.3892917 Z M3.66208333,15.5833333 L7.94608333,15.5833333 C6.02579167,21.25 9.26570833,30.2160833 9.265,30.2160833 C2.261,24.847625 3.66208333,15.5833333 3.66208333,15.5833333 Z M27.6363333,19.1002083 C30.0475,19.6590833 30.4781667,20.8412917 30.4505417,22.372 C30.419375,24.11025 29.91575,25.2867917 26.6234167,25.6919583 C27.2198333,23.5754583 27.50175,21.3045417 27.6363333,19.1002083 Z" id="Path"></path>
                        <path d="M16.29875,9.76508333 C16.8434583,4.82941667 27.7404583,7.29866667 25.4695417,0.891083333 C25.1224583,-0.0885416667 23.5535,0.333625 23.904125,1.32245833 C24.8993333,4.13170833 21.1154167,4.47383333 19.1894583,5.11770833 C16.8753333,5.89120833 14.96,7.184625 14.67525,9.76508333 C14.5605,10.8049167 16.1854167,10.7935833 16.29875,9.76508333 L16.29875,9.76508333 Z" id="Shape"></path>
                        <path d="M24.03375,6.31054167 C21.90875,6.81133333 19.9665,7.72154167 19.3042083,9.955625 C19.006,10.9621667 20.5728333,11.3885833 20.869625,10.387 C21.600625,7.919875 24.84125,7.87879167 26.9102917,7.278125 C29.1323333,6.63283333 30.4037917,5.093625 30.0985,2.730625 C29.9653333,1.70708333 28.3418333,1.69433333 28.475,2.730625 C28.8440417,5.58804167 26.2147083,5.79629167 24.03375,6.31054167 L24.03375,6.31054167 Z" id="Shape"></path>
                    </g>
                </g>
            </g>
        </g>
    </g>
</svg>