<?xml version="1.0" encoding="UTF-8" standalone="no"?>
<svg width="35px" height="35px" viewBox="0 0 35 35" version="1.1" xmlns="http://www.w3.org/2000/svg" xmlns:xlink="http://www.w3.org/1999/xlink" xmlns:sketch="http://www.bohemiancoding.com/sketch/ns">
    <!-- Generator: Sketch 3.3.2 (12043) - http://www.bohemiancoding.com/sketch -->
    <title>Oval 4</title>
    <desc>Created with Sketch.</desc>
    <defs></defs>
    <g id="Page-1" stroke="none" stroke-width="1" fill="none" fill-rule="evenodd" sketch:type="MSPage">
        <g id="dashboard" sketch:type="MSArtboardGroup" transform="translate(-294.000000, -1835.000000)" fill="#FFFFFF">
            <g id="MAKE-BANK" sketch:type="MSLayerGroup" transform="translate(40.000000, 1577.000000)">
                <g id="FitnessFirst" transform="translate(245.000000, 250.000000)" sketch:type="MSShapeGroup">
                    <path d="M26.5,43 C36.1649831,43 44,35.1649831 44,25.5 C44,15.8350169 36.1649831,8 26.5,8 C16.8350169,8 9,15.8350169 9,25.5 C9,35.1649831 16.8350169,43 26.5,43 Z M32.2973316,23.3104617 L27.2401525,23.3104617 L28.9089369,17.8720881 C30.3828886,17.7873782 31.8653113,17.7789072 33.339263,17.7789072 C35.1520542,17.7789072 36.9648454,17.8382042 38.7776366,17.939856 L39.4044896,16.0508259 C37.9135959,16.008471 36.4142313,16 34.9148666,16 C30.0525201,16 24.3854299,16.2033037 20.0228717,18.566709 L20.3362982,19.3545108 C22.1152054,18.6260059 24.1651842,18.1939856 26.0711563,18.0753918 L24.5717916,23.3104617 L21.734011,23.3104617 L21.4629394,24.2846252 L24.2837781,24.2846252 C23.9364676,25.5806861 23.4875053,27.0969928 22.7844134,29.2147395 C22.6319356,29.6467598 22.1829733,30.9767048 21.8356629,31.7221516 C21.5561203,32.3066497 21.0478611,33.1283355 20.480305,33.5942397 C20.0821686,33.9246082 19.6755612,34.2295637 18.8877594,34.4921643 C18.1507836,34.729352 17.2782719,34.7886489 16.4735282,34.7886489 C15.8890301,34.7886489 15.296061,34.737823 14.7115629,34.6446421 L14,35.9661161 C14.3896654,35.991529 14.7878018,36 15.1689962,36 C23.1486658,36 24.8428632,30.7988141 26.9436679,24.2930961 L31.5264718,24.2930961 L32.2973316,23.3104617 Z" id="Oval-4"></path>
                </g>
            </g>
        </g>
    </g>
</svg>