<?xml version="1.0" encoding="UTF-8" standalone="no"?>
<svg width="36px" height="35px" viewBox="0 0 36 35" version="1.1" xmlns="http://www.w3.org/2000/svg" xmlns:xlink="http://www.w3.org/1999/xlink" xmlns:sketch="http://www.bohemiancoding.com/sketch/ns">
    <!-- Generator: Sketch 3.3.2 (12043) - http://www.bohemiancoding.com/sketch -->
    <title>hypovereinsbank</title>
    <desc>Created with Sketch.</desc>
    <defs></defs>
    <g id="Page-1" stroke="none" stroke-width="1" fill="none" fill-rule="evenodd" sketch:type="MSPage">
        <g id="dashboard" sketch:type="MSArtboardGroup" transform="translate(-50.000000, -1589.000000)">
            <g id="MAKE-BANK" sketch:type="MSLayerGroup" transform="translate(40.000000, 1577.000000)">
                <g id="Hypovereinsbank" sketch:type="MSShapeGroup">
                    <g id="hypovereinsbank" transform="translate(10.000000, 12.000000)">
                        <path d="M18.6831858,9.50884956 C18.8814159,9.18053097 18.9433628,8.92035398 18.3920354,8.56725664 C17.8035398,8.23893805 15.9513274,7.13628319 15.5610619,6.84513274 C15.1707965,6.5539823 15.2327434,5.51327434 16.3415929,5.2840708 C17.320354,5.08584071 24.9274336,4.43539823 29.2265487,4.56548673 C26.1353982,1.76548673 22.0035398,0.0433628319 17.5123894,0.0433628319 C7.87964602,0.0433628319 0.0433628319,7.88584071 0.0433628319,17.5123894 C0.0433628319,21.9725664 1.73451327,26.0362832 4.50353982,29.1584071 C7.56371681,24.8654867 15.6973451,13.4115044 16.4097345,12.5318584 C16.4097345,12.5318584 18.4911504,9.83097345 18.6831858,9.50884956 L18.6831858,9.50884956 Z" id="Shape" fill="#FFFFFF"></path>
                        <path d="M30.4283186,10.8716814 C30.4283186,10.8716814 27.0769912,13.9628319 24.6362832,16.1123894 C22.1955752,18.2247788 14.3902655,24.7973451 12.860177,26.0053097 C11.720354,26.8849558 8.23893805,29.4867257 6.31858407,30.9176991 C9.34159292,33.4575221 13.2504425,34.9814159 17.5123894,34.9814159 C27.1451327,34.9814159 34.9814159,27.1389381 34.9814159,17.5433628 C34.9814159,14.3530973 34.1327434,11.3610619 32.639823,8.79026549 C32.0575221,9.37876106 31.3079646,10.060177 30.4283186,10.8716814 L30.4283186,10.8716814 Z" id="Shape" fill="#FFFFFF"></path>
                        <path d="M33.3274336,8.00973451 C33.3274336,8.00973451 33.8787611,7.26017699 33.9469027,6.96902655 C34.1079646,6.38053097 30.7256637,4.65840708 30.7256637,4.65840708 L29.2265487,4.55929204 C24.9336283,4.42920354 17.320354,5.07964602 16.3415929,5.27787611 C15.2327434,5.50707965 15.1707965,6.54778761 15.5610619,6.83893805 C15.9513274,7.1300885 17.8035398,8.23893805 18.3920354,8.56106195 C18.9433628,8.92035398 18.8814159,9.18053097 18.6831858,9.50265487 C18.4849558,9.83097345 16.4035398,12.5256637 16.4035398,12.5256637 C15.6849558,13.4053097 4.49734513,29.1522124 4.49734513,29.1522124 L3.90884956,29.9327434 C3.90884956,29.9327434 3.38849558,30.6823009 3.35752212,30.7132743 C3.06637168,31.1345133 2.47787611,31.7849558 3.06637168,32.4044248 C3.65486726,32.9929204 4.72654867,32.1442478 5.08584071,31.8530973 C5.1539823,31.8221239 5.54424779,31.4938053 5.54424779,31.4938053 L6.32477876,30.9053097 C6.32477876,30.9053097 11.7265487,26.8725664 12.8663717,25.9929204 C14.3964602,24.7911504 22.2017699,18.2185841 24.6424779,16.1 C27.0831858,13.9504425 30.4345133,10.859292 30.4345133,10.859292 C31.3141593,10.0477876 32.6460177,8.77787611 32.6460177,8.77787611 L33.3274336,8.00973451 L33.3274336,8.00973451 Z" id="Shape" stroke="#FFFFFF" stroke-width="2"></path>
                    </g>
                </g>
            </g>
        </g>
    </g>
</svg>