<?xml version="1.0" encoding="UTF-8" standalone="no"?>
<svg width="35px" height="37px" viewBox="0 0 35 37" version="1.1" xmlns="http://www.w3.org/2000/svg" xmlns:xlink="http://www.w3.org/1999/xlink" xmlns:sketch="http://www.bohemiancoding.com/sketch/ns">
    <!-- Generator: Sketch 3.3.2 (12043) - http://www.bohemiancoding.com/sketch -->
    <title>Shape</title>
    <desc>Created with Sketch.</desc>
    <defs></defs>
    <g id="Page-1" stroke="none" stroke-width="1" fill="none" fill-rule="evenodd" sketch:type="MSPage">
        <g id="dashboard" sketch:type="MSArtboardGroup" transform="translate(-296.000000, -1588.000000)" fill="#FFFFFF">
            <g id="MAKE-BANK" sketch:type="MSLayerGroup" transform="translate(40.000000, 1577.000000)">
                <g id="Cinema" transform="translate(245.000000, 0.000000)" sketch:type="MSShapeGroup">
                    <g id="video" transform="translate(4.757404, 5.957224)">
                        <g id="tickets" transform="translate(0.000000, 0.000000)">
                            <g id="Group" transform="translate(24.469846, 23.171010) rotate(20.000000) translate(-24.469846, -23.171010) translate(4.969846, 6.171010)">
                                <path d="M35.7156664,17.5792585 C35.7767045,17.6055872 35.8300733,17.6409292 35.8853397,17.6743737 L36.3660545,16.5721295 C36.3037513,16.5541027 36.2413691,16.5393175 36.180331,16.5123564 C35.4438412,16.1910365 35.1076571,15.3336564 35.4284235,14.5977991 L32.7156267,13.4145925 L35.6726551,17.5656594 C35.6868077,17.5715892 35.7015928,17.5734868 35.7156664,17.5792585 Z M0.753884095,17.1725072 L17.2137,24.3500214 L7.16462664,10.2437312 L6.79183551,9.72055859 L7.31500814,9.34776746 C7.6794184,9.08811823 7.76488758,8.57973074 7.50523836,8.21532048 L7.13244722,7.69151533 L7.65561985,7.31872419 L8.60360835,6.6432725 L9.1274135,6.27048137 L9.50020464,6.793654 C9.65248369,7.00705024 9.89995692,7.13489823 10.1628478,7.13489823 C10.3318886,7.13489823 10.4944461,7.08287351 10.6326516,6.98388422 C10.8093617,6.85793379 10.9263778,6.67086616 10.9623524,6.45691647 C10.9983269,6.24288771 10.9488323,6.02822642 10.8228818,5.85151631 L10.4500907,5.32834368 L10.9732633,4.95555254 L11.9212518,4.28010085 L11.9308977,4.27306407 L7.26622508,2.23903972 C7.02776525,2.78593183 6.49304914,3.11246998 5.93200441,3.11246998 C5.73790001,3.11246998 5.54063301,3.07325378 5.35103531,2.99102625 L4.8857382,4.05784934 C5.62222802,4.37916921 5.95904461,5.23591677 5.63764568,5.97240658 C5.39918585,6.5192987 4.86446974,6.84583685 4.303425,6.84583685 C4.1093206,6.84583685 3.91205361,6.80662065 3.72245591,6.72439312 L3.2571588,7.7912162 C3.99364861,8.11253607 4.33046521,8.96928364 4.00906628,9.70577345 C3.77060645,10.2526656 3.23589034,10.5792037 2.6748456,10.5792037 C2.4807412,10.5792037 2.28347421,10.5399875 2.09387651,10.45776 L1.6285794,11.5245831 C2.36506921,11.8459029 2.70188581,12.7026505 2.38048687,13.4391403 C2.14202705,13.9860324 1.60731094,14.3125706 1.0462662,14.3125706 C0.852161802,14.3125706 0.654894804,14.2733544 0.465297105,14.1911269 L3.60600438e-13,15.2579499 C0.738466434,15.5786373 1.07520397,16.4360174 0.753884095,17.1725072 Z M11.4444815,8.37536858 C10.9900954,8.37536858 10.5421135,8.16331644 10.2587448,7.7648292 L9.31075627,8.43964837 C9.7766859,9.09391065 9.62440685,10.0020504 8.97014456,10.4686126 L19.6406683,25.447068 L20.3656146,26.4644755 L21.0899284,27.4811714 L25.1741854,33.2145647 C25.4299605,33.0320038 25.7249517,32.944637 26.0167804,32.944637 C26.4711665,32.944637 26.9191484,33.1566892 27.2025171,33.5551764 C27.2411008,33.6091778 27.2686945,33.6669742 27.2988973,33.7242172 L28.2783536,33.0262321 C28.2339982,32.9793465 28.1883777,32.933647 28.149794,32.8797247 C27.6838644,32.2254625 27.8361435,31.3173227 28.4904057,30.8507605 C28.7461808,30.6681996 29.041172,30.5808329 29.3330007,30.5808329 C29.7873868,30.5808329 30.2353687,30.792885 30.5187374,31.1913723 C30.5573211,31.2453736 30.5849148,31.3031701 30.6151176,31.3604131 L31.5945739,30.6624279 C31.5502185,30.6155424 31.504598,30.5698428 31.4660143,30.5159206 C31.0000847,29.8616583 31.1523638,28.9535185 31.806626,28.4875889 C32.0624011,28.305028 32.3573923,28.2176612 32.649221,28.2176612 C33.1036071,28.2176612 33.551589,28.4297134 33.8349577,28.8282006 C33.8735414,28.8822019 33.9011351,28.9399984 33.9313379,28.9972414 L34.9107942,28.2992562 C34.8664388,28.2523707 34.8208183,28.2066712 34.7822346,28.1527489 C34.316305,27.4984866 34.4685841,26.5903469 35.1228464,26.1244172 C35.3786214,25.9418563 35.6736126,25.8544896 35.9654413,25.8544896 C36.4198274,25.8544896 36.8678093,26.0665417 37.151178,26.4650289 C37.1897617,26.5190303 37.2173554,26.5768268 37.2475582,26.6340698 L38.2270145,25.9360846 C38.1826591,25.8891991 38.1370386,25.8434995 38.0984549,25.7895773 C37.6325253,25.135315 37.7848044,24.2271752 38.4390667,23.7612456 L35.1196047,19.1017912 L34.8895257,18.7791272 L34.0020219,17.5335383 L33.5521425,16.9018096 L30.2860493,12.3169134 L29.5617355,11.3002175 L28.8367892,10.28281 L22.2384256,1.01600502 C21.9826505,1.19856594 21.6876593,1.28593268 21.3958306,1.28593268 C20.9414445,1.28593268 20.4934626,1.07388054 20.2100939,0.675393302 L19.2621054,1.35084499 C19.728035,2.00510727 19.575756,2.91324704 18.9214937,3.37917667 C18.6657186,3.56173759 18.3707274,3.64910434 18.0788987,3.64910434 C17.6245126,3.64910434 17.1765307,3.4370522 16.893162,3.03856496 L15.9451735,3.71401664 C16.1720108,4.03280643 16.2498107,4.41200183 16.1970744,4.77056128 C16.1656065,4.98395753 16.0852766,5.18762878 15.9624887,5.36955718 C15.8680061,5.51029276 15.7510691,5.63885233 15.6044827,5.74298084 C15.5466072,5.78409461 15.4816949,5.80338645 15.4206568,5.83485429 C15.2105022,5.9434895 14.9880925,6.01354103 14.7618878,6.01354103 C14.3075016,6.01354103 13.8595198,5.80148889 13.576151,5.40300165 L12.6281626,6.07845334 C13.0936178,6.730739 12.9413387,7.63951129 12.2870765,8.10544091 C12.0313014,8.28800183 11.7363102,8.37536858 11.4444815,8.37536858 Z" id="Shape"></path>
                            </g>
                        </g>
                    </g>
                </g>
            </g>
        </g>
    </g>
</svg>