<?xml version="1.0" encoding="UTF-8" standalone="no"?>
<svg width="13px" height="16px" viewBox="0 0 13 16" version="1.1" xmlns="http://www.w3.org/2000/svg" xmlns:xlink="http://www.w3.org/1999/xlink" xmlns:sketch="http://www.bohemiancoding.com/sketch/ns">
    <!-- Generator: Sketch 3.3.2 (12043) - http://www.bohemiancoding.com/sketch -->
    <title>user</title>
    <desc>Created with Sketch.</desc>
    <defs></defs>
    <g id="Page-1" stroke="none" stroke-width="1" fill="none" fill-rule="evenodd" sketch:type="MSPage">
        <g id="dashboard" sketch:type="MSArtboardGroup" transform="translate(-742.000000, -15.000000)" fill="#92DBA4">
            <g id="Menu-&amp;-Greeting" sketch:type="MSLayerGroup" transform="translate(0.000000, 15.000000)">
                <g id="Menu" transform="translate(742.000000, 0.000000)" sketch:type="MSShapeGroup">
                    <g id="user">
                        <g id="Group">
                            <path d="M6.45185185,7.82505143 C8.32548889,7.82505143 9.84451481,6.07337143 9.84451481,3.91254857 C9.84451481,1.75168 9.3457963,0 6.45185185,0 C3.55790741,0 3.05909259,1.75168 3.05909259,3.91254857 C3.05909259,6.07337143 4.57811852,7.82505143 6.45185185,7.82505143 L6.45185185,7.82505143 Z" id="Shape"></path>
                            <path id="Shape" d="M0.0569559128,13.8312871 C0.0449559128,13.6367014 0.0329559128,13.7764628 0.0569559128,13.8312871 L0.0569559128,13.8312871 L0.0569559128,13.8312871 Z"></path>
                            <path id="Shape" d="M12.8596481,13.9018971 C12.8976481,13.8658286 12.8726481,13.6516571 12.8596481,13.9018971 L12.8596481,13.9018971 L12.8596481,13.9018971 Z"></path>
                            <path d="M12.8524259,13.6410057 C12.7895926,9.8768 12.2718074,8.80420571 8.30955185,8.12525714 C8.30955185,8.12525714 7.7518037,8.80004571 6.4518037,8.80004571 C5.1518037,8.80004571 4.59395926,8.12525714 4.59395926,8.12525714 C0.674940741,8.7968 0.125666667,9.85348571 0.0534444444,13.51872 C0.0475222222,13.8180114 0.0447777778,13.8337371 0.0437185185,13.7989943 C0.0439592593,13.8640914 0.0442481481,13.9845029 0.0442481481,14.1944686 C0.0442481481,14.1944686 0.987566667,16 6.4518037,16 C11.9159444,16 12.8593593,14.1944686 12.8593593,14.1944686 C12.8593593,14.0595657 12.8594556,13.96576 12.8596,13.9019429 C12.8585407,13.9234286 12.8564222,13.8817829 12.8524259,13.6410057 L12.8524259,13.6410057 Z" id="Shape"></path>
                        </g>
                    </g>
                </g>
            </g>
        </g>
    </g>
</svg>